<?xml version="1.0" encoding="UTF-8"?>
<svg version="1.1" xmlns="http://www.w3.org/2000/svg" width="703" height="637">
<path d="M0 0 C0.70833984 0.51159668 1.41667969 1.02319336 2.14648438 1.55029297 C15.09597594 10.95806876 27.18352848 21.20786656 39 32 C39.95648437 32.86367187 40.91296875 33.72734375 41.8984375 34.6171875 C51.45160618 43.26722048 60.64228178 52.17241723 69 62 C69.84691406 62.95777344 70.69382812 63.91554687 71.56640625 64.90234375 C90.44252255 86.3439895 106.15332055 110.06087151 120 135 C120.45084961 135.80453613 120.90169922 136.60907227 121.36621094 137.43798828 C153.19862396 194.63014837 169.11571993 263.52109973 151.3125 327.6875 C148.13893858 338.51626841 143.81842817 348.8095957 139 359 C138.62391602 359.79615723 138.24783203 360.59231445 137.86035156 361.41259766 C122.07597516 394.22533879 96.95717183 424.65814875 69 448 C68.22785156 448.6496875 67.45570313 449.299375 66.66015625 449.96875 C63.7983384 452.34427399 60.90716263 454.68044623 58 457 C57.11707275 457.70769531 57.11707275 457.70769531 56.21630859 458.4296875 C36.84720577 473.86498802 16.03875573 486.74025397 -6 498 C-7.32547852 498.67820801 -7.32547852 498.67820801 -8.67773438 499.37011719 C-65.60205442 528.17597122 -128.6732086 540.07063338 -192 542 C-192.79680176 542.02481445 -193.59360352 542.04962891 -194.41455078 542.07519531 C-276.95035218 544.28513962 -366.34054246 520.85363852 -456.38427734 454.47338867 C-487.48699645 424.85379524 -506.99746694 383.6839948 -508.17700195 340.43457031 C-508.20316583 338.81583777 -508.22332654 337.1969999 -508.23828125 335.578125 C-508.2480751 334.69270523 -508.25786896 333.80728546 -508.26795959 332.89503479 C-508.76537793 275.9754576 -499.09025849 219.96263229 -481 166 C-480.61086426 164.83275391 -480.22172852 163.66550781 -479.82080078 162.46289062 C-473.88853932 144.83865461 -466.90830804 127.82704727 -459 111 C-458.57219238 110.08782715 -458.14438477 109.1756543 -457.70361328 108.23583984 C-445.94610374 83.41028519 -431.12083116 60.68153383 -414.45996094 38.90966797 C-413.51166625 37.66927314 -412.56679921 36.42624757 -411.62597656 35.18017578 C-404.77934025 26.11550938 -397.321716 17.82370007 -389.49755859 9.59472656 C-387.63208176 7.60820967 -385.8381627 5.56695119 -384.0625 3.5 C-378.53707208 -2.89568282 -372.41635002 -8.51557394 -366 -14 C-365.05253906 -14.825 -364.10507812 -15.65 -363.12890625 -16.5 C-291.86639719 -78.17033498 -204.19881743 -82.68809529 0 0 Z " fill="#32334C" transform="translate(524,85)"/>
</svg>
